<?xml version="1.0" encoding="UTF-8"?>
<svg width="128pt" height="128pt" version="1.1" viewBox="0 0 128 128" xmlns="http://www.w3.org/2000/svg">
 <path d="m123.06 93.32h-14.578c0.72656-0.65625 1.4492-1.5234 2.0391-2.4336 2.4492 1.1172 5.0898 0.62109 6.1094-2.0859l1.2461-3.6602c0.83594-2.8047-0.96484-4.7812-3.6133-5.3984 0.30859-3.8359-1.1445-7.0703-4.0312-8.3945l-14.742-7.0469c-4.1367-2.4766-7.8672-5.6992-10.492-9.7812-3.3438-5.0586-8.8867-11.129-14.426-13.012-0.64844-0.21875-1.3633 0.023438-1.7383 0.59766-2.3672 3.6133-3.7031 6.7031-4.1914 9.7734l-4.6055-1.2461c-0.89062-0.26562-1.875 0.45313-1.8906 1.3867l-0.26172 6.1016c-2.1836-0.03125-3.9844 1.0273-5.2266 3.1172-2.0781-0.44922-3.7188-1.5664-4.9922-3.3984-0.26562-0.37891-0.6875-0.61719-1.1484-0.64062-4.8438-0.26562-8.7539 2.8516-11.938 5.9336-0.46875 0.45313-0.58984 1.1641-0.30078 1.7461 1.3008 2.6133 0.83984 5.1406-1.457 7.9531-0.30078 0.36719-0.40625 0.85547-0.29297 1.3164 2.1211 8.4531 8.0117 15.281 16.398 19.176h-7.4414c0.24609-0.054688-5.3438-5.7188-5.4414-5.8945-0.44922-0.47656-1.1562-0.60547-1.7461-0.31641l-6.0312 2.9414c-1.5117 0.83594-0.67188 2.3438 0.23828 3.2695h-1.7188l-2.3086-4.7461c-0.19531-0.40234-0.5625-0.69922-0.99609-0.80078-0.95312-0.33594-2.1719 1.0469-2.8828 1.4844-5.0781-2.3086-10.555-0.89844-13.094 4.0625h-2.9883c-1.9492 0.027343-1.9883 2.9648 0 3h21.328 97.215c1.875-0.015625 2.0625-2.9375 0-3zm-88.438-3.0312 2.6758 2.8281c-2.5547 0.49219-4.5117 0.10156-5.9883-1.2109l3.3125-1.6133zm43.344-16.562c0.28906-0.85156 0.48047-1.7188 0.57812-2.5898l13.238 4.5c-0.42969 1.7109-0.99609 3.3789-1.6914 5.0039l-13.246-4.5039c0.44922-0.75 0.82812-1.5547 1.1172-2.4102zm14.293 9.4141c2.2891-4.8164 3.4531-9.9492 3.6211-15.324l3.7461 1.7891c-0.32031 7.4961-2.668 14.406-6.9883 20.562l-4.0508-0.85938c1.4336-1.9766 2.6641-4.043 3.6719-6.168zm19.027-3.957c-0.11328 4.4375-3.2656 14.039-8.5547 13.133l-6.9219-1.4727c3.9688-6.0117 6.2305-12.668 6.7422-19.836l6.3789 3.0508c2.0703 0.98828 2.4219 3.3359 2.3516 5.1289zm-75.664-5.0703c2.3672-3.1797 2.9688-6.3828 1.7891-9.5391 3.1953-2.9492 5.7383-4.3008 8.2578-4.3906 1.9219 2.4414 4.4961 3.8516 7.6602 4.1914 2.4414 0.15234 1.3477-4.1719 5.5938-3.0938 0.89062 0.26172 1.8711-0.45312 1.8867-1.3867l0.25-5.8828 4.4883 1.2109c0.4375 0.11719 0.90625 0.03125 1.2695-0.23438 0.36719-0.26562 0.59375-0.68359 0.61719-1.1367 0.15234-2.8477 1.1641-5.6875 3.2461-9.0859 9.5156 4.4883 12.941 16.527 22.211 21.414 0.011719 2.2188-0.15234 4.3906-0.49609 6.4766l-13.918-4.7305c-0.62891-4.0391-3.332-7.4688-6.9688-8.7031-4.8984-1.6641-7.9883 0.09375-8.7812 2.4336-0.62109 1.8203 0.19922 4.1562 2.9609 5.0938l9.9219 3.3711c-0.066406 1.7422-0.6875 3.5781-1.6992 5l-9.9219-3.3711c-2.7617-0.94141-4.8359 0.41406-5.4531 2.2344-1.457 3.4219 3.4922 7.8984 8.6016 7.7891 2.7617 0 5.5664-1.1289 7.7031-3.1641l13.93 4.7344c-0.97266 1.8125-2.1211 3.5742-3.4336 5.2617-4.7031-0.46875-9.5234 0.097656-13.988 1.6523-5.1758 1.8008-12.973 3.3086-17.922 1.6328-9.0273-3.0703-15.48-9.5273-17.812-17.785zm39.492-7.3125-8.4531-2.8711c-0.82812-0.28125-1.2578-0.78906-1.0859-1.2891 0.1875-0.54688 0.99219-1.0508 2.3555-1.0508 3.0352-0.039063 6.1914 2.0859 7.1914 5.2109zm-3.6289 10.68c-5.8789 4.0156-12.727-2.418-9.2344-3.0156 0.097656-0.22656 8.8906 2.9609 9.2344 3.0156zm0.85938 15.621c4.1367-1.4414 8.6055-1.9453 12.957-1.4727 0.10547 0.050782 0.21875 0.089844 0.33594 0.11328l7.4062 1.5742h-21.344c0.21875-0.074218 0.43359-0.14453 0.64453-0.21875zm-48.895 0.21875h-3.2617l2.3867-1.7969 0.87109 1.7969zm-9.8242-1.7891c1.2266-0.44141 2.6289-0.46875 4.0898-0.10938l-2.5195 1.8945h-4.1016c0.70312-0.82812 1.5586-1.4375 2.5312-1.7891z" fill="#1b1a1e"/>
</svg>
