<?xml version="1.0" encoding="UTF-8"?>
<svg width="128pt" height="128pt" version="1.1" viewBox="0 0 128 128" xmlns="http://www.w3.org/2000/svg">
 <path d="m84.227 23.934c-18.176-16.641-48.254-4.8633-50.305 19.84-0.89453 9.6016 2.6914 18.691 9.7305 25.09 2.9453 2.6914 4.9883 6.0156 5.7617 9.7305l1.4102 6.5312c-1.4102 0.38672-2.4297 1.5352-2.4297 3.0703 0.12891 1.4102-0.38672 4.7344 0.64062 5.7617-1.1484 1.0234-0.64062 4.3516-0.64062 5.7617 0 1.7891 1.4102 3.1992 3.1992 3.1992l3.4492-0.003907c0.51172 11.773 17.535 11.773 18.051 0h3.4531c1.7891 0 3.1992-1.4102 3.1992-3.1992-0.12891-1.4102 0.38672-4.7344-0.64062-5.7617 1.1484-1.0234 0.64062-4.3516 0.64062-5.7617 0-1.5352-1.0234-2.6914-2.4297-3.0703l1.4102-6.5312c0.76953-3.7109 2.8164-7.1719 5.8906-9.8555 12.922-11.645 12.797-33.281-0.39063-44.801zm-20.227 85.504c-3.5859 0-6.5312-2.9453-6.6562-6.5312h13.309c0 3.5859-2.9453 6.5312-6.6562 6.5312zm13.309-21.25v3.8398c0 0.38672-0.38672 0.76953-0.76953 0.76953h-10.879c-1.5352 0-1.5352 2.3047 0 2.3047h10.879c0.38672 0 0.76953 0.38672 0.76953 0.76953v3.8398c0 0.38672-0.38672 0.76953-0.76953 0.76953l-24.953-0.003907c-0.38672 0-0.76953-0.38672-0.76953-0.76953v-3.8398c0-0.38672 0.38672-0.76953 0.76953-0.76953 1.5352 0 1.5352-2.3047 0-2.3047-0.38672 0-0.76953-0.38672-0.76953-0.76953v-3.8398c0-0.38672 0.38672-0.76953 0.76953-0.76953h24.961c0.38672 0.011719 0.76562 0.39453 0.76562 0.77344zm5.6367-21.121c-3.3281 3.0703-5.6289 6.9102-6.5312 11.137l-1.5352 6.9102-21.629 0.003907-1.5391-7.0391c-0.89453-4.2266-3.1992-8.0664-6.5312-11.012-17.531-15.871-7.9297-45.82 15.621-48.254 26.879-2.9453 41.855 29.824 22.145 48.254zm-0.12891-28.16-14.977 6.6602-4.2266-6.3984c-0.38672-0.64062-1.2812-0.64062-1.7891-0.25391l-17.922 17.148c-0.89453 0.89453 0.12891 2.4297 1.2812 1.9219 0 0 14.977-6.5312 14.977-6.5312l4.2266 6.3984c0.25391 0.25391 0.51172 0.51172 0.89453 0.51172 0.38672 0 0.64062-0.12891 0.89453-0.38672l17.922-17.148c1.0234-0.76562-0.125-2.4297-1.2812-1.9219zm-17.148 16.516-4.0938-6.0156c-0.25391-0.51172-0.89453-0.64062-1.4102-0.38672l-9.7305 4.2266 12.031-11.648 4.0938 6.0156c0.25391 0.51172 0.89453 0.64062 1.4102 0.38672l9.7305-4.2266zm53.504-22.016c1.1484-1.0234 2.0508-2.4297 2.3047-3.9688 1.1484-5.6289-5.375-10.109-10.238-7.2969-50.691-55.426-137.73 6.1445-102.41 72.445-6.1445 5.5039 0.76953 15.23 7.9336 11.266 51.461 55.293 137.47-5.8867 102.41-72.445zm-7.3008-8.9609c4.9883-3.3281 10.238 3.8398 5.375 7.5508-4.9883 3.4531-10.234-3.8398-5.375-7.5508zm-95.738 79.102c-5.1211 3.3281-10.238-3.9688-5.375-7.5508 5.1133-3.4531 10.234 3.8398 5.375 7.5508zm82.941 10.113c-25.469 18.051-59.906 13.949-80.387-9.2148 4.8633-5.5039-1.0234-13.824-7.8086-11.137-33.785-63.875 49.672-122.75 98.566-69.633-4.8633 5.5039 1.0234 13.824 7.8086 11.137 14.977 27.012 7.2969 60.801-18.18 78.852z" fill="#1b1a1e"/>
</svg>
